<svg xmlns="http://www.w3.org/2000/svg" width="90" height="90" viewBox="0 0 90 90">
  <g fill="none" fill-rule="evenodd">
    <circle cx="45" cy="45" r="45" fill="#C4E998" fill-rule="nonzero"/>
    <g stroke="#3F3E3E" stroke-linecap="round" stroke-linejoin="round" stroke-width="2" transform="translate(15 20)">
      <polyline points="43.925 19.995 43.925 .366 .813 .366 .813 35.06 23.411 35.06"/>
      <path d="M5.06696045 5.41716418C5.80108179 5.41716418 6.39616866 4.82200448 6.39616866 4.08791955 6.39616866 3.35379821 5.80108179 2.75866582 5.06696045 2.75866582 4.33283 2.75866582 3.73770672 3.35379821 3.73770672 4.08791955 3.73770672 4.82200448 4.33283 5.41716418 5.06696045 5.41716418zM39.7161896 5.41716418C40.4502836 5.41716418 41.0454433 4.82200448 41.0454433 4.08791955 41.0454433 3.35379821 40.4502836 2.75866582 39.7161896 2.75866582 38.9820045 2.75866582 38.3869358 3.35379821 38.3869358 4.08791955 38.3869358 4.82200448 38.9820045 5.41716418 39.7161896 5.41716418z"/>
      <line x1="7.46" x2="7.46" y1="14.102" y2="33.154"/>
      <line x1="13.264" x2="13.264" y1="14.102" y2="33.154"/>
      <line x1="19.113" x2="19.113" y1="14.102" y2="33.154"/>
      <line x1="24.917" x2="24.917" y1="14.102" y2="29.211"/>
      <line x1="30.766" x2="30.766" y1="14.102" y2="22.875"/>
      <line x1="36.615" x2="36.615" y1="14.368" y2="20.393"/>
      <line x1="3.738" x2="41.045" y1="18.355" y2="18.355"/>
      <line x1="3.738" x2="29.702" y1="23.761" y2="23.761"/>
      <line x1="3.738" x2="24.651" y1="29.211" y2="29.211"/>
      <rect width="37.308" height="3.589" x="3.738" y="8.12"/>
      <path d="M41.8429955,54.3780403 C50.4567418,54.3780403 57.4395119,47.3951791 57.4395119,38.7814328 C57.4395119,30.1676866 50.4567418,23.1848254 41.8429955,23.1848254 C33.2292493,23.1848254 26.2463881,30.1676866 26.2463881,38.7814328 C26.2463881,47.3951791 33.2292493,54.3780403 41.8429955,54.3780403 Z"/>
      <path d="M41.8429045,57.3023985 C52.1451672,57.3023985 60.4967955,48.9507701 60.4967955,38.6485075 C60.4967955,28.3462448 52.1451672,19.9946164 41.8429045,19.9946164 C31.5407328,19.9946164 23.1891045,28.3462448 23.1891045,38.6485075 C23.1891045,48.9507701 31.5407328,57.3023985 41.8429045,57.3023985 Z"/>
      <path d="M41.7986567,32.0465776 L40.5580806,38.6042597 C40.5580806,39.1359612 40.9125179,39.8448358 41.7986567,39.8448358 C42.7291343,39.8448358 43.0393239,39.1359612 43.0393239,38.6042597 L41.7986567,32.0465776 Z"/>
      <path d="M40.5579896,37.4965179 L32.3609552,38.6485075 L41.7986567,39.8891746 C42.8177209,39.8891746 43.0393239,39.180209 43.0393239,38.6485075"/>
      <line x1="28.063" x2="29.614" y1="38.693" y2="38.693"/>
      <line x1="53.806" x2="55.401" y1="38.693" y2="38.693"/>
      <line x1="41.887" x2="41.887" y1="52.34" y2="50.745"/>
      <line x1="41.887" x2="41.887" y1="26.73" y2="25.179"/>
      <line x1="32.228" x2="33.336" y1="48.352" y2="47.2"/>
      <line x1="50.394" x2="51.547" y1="30.141" y2="29.034"/>
      <line x1="51.547" x2="50.394" y1="48.352" y2="47.2"/>
      <line x1="33.336" x2="32.228" y1="30.141" y2="29.034"/>
    </g>
  </g>
</svg>
